<svg width="107" height="99" viewBox="0 0 107 99" fill="none" xmlns="http://www.w3.org/2000/svg">
<g filter="url(#filter0_d_0_1)">
<path d="M22.7568 80.9592C8.39193 80.9592 4.04749 68.1843 4 68.0411L6.50289 67.2173L5.25233 67.6292L6.50289 67.2137C6.68757 67.7777 11.2642 80.9875 27.5814 77.8212L28.0827 80.42C26.1708 80.7913 24.3996 80.9592 22.7585 80.9592H22.7568Z" fill="white"/>
</g>
<g filter="url(#filter1_d_0_1)">
<path d="M73.7152 90.7199C72.0584 86.5105 68.6655 84.0938 63.6298 83.5351C59.6899 83.1002 56.1914 84.0036 56.1563 84.0125L55.4844 81.4508C55.6392 81.4083 71.3056 77.4023 76.1671 89.744L73.717 90.7181L73.7152 90.7199Z" fill="white"/>
</g>
<path d="M4.86229 45.534C2.96797 35.2643 10.0352 25.2915 12.0597 25.7936C13.9417 26.2621 10.5294 35.5524 14.6575 48.1116C17.9203 58.0366 23.3922 62.3998 22.4529 63.3068C21.0898 64.6203 7.12422 57.8015 4.86229 45.534Z" fill="#FFC33E" fill-opacity="0.6"/>
<path d="M4.86229 45.534C2.96797 35.2643 10.0352 25.2915 12.0597 25.7936C13.9417 26.2621 10.5294 35.5524 14.6575 48.1116C17.9203 58.0366 23.3922 62.3998 22.4529 63.3068C21.0898 64.6203 7.12422 57.8015 4.86229 45.534Z" fill="#F2FF00" fill-opacity="0.7"/>
<path d="M53.4122 44.8444C52.881 36.8694 48.4803 31.3235 50.3253 30.1372C52.3287 28.8484 60.1522 33.7066 62.6463 40.7234C65.3919 48.4492 60.6764 55.9769 57.9079 60.3967C50.5733 72.1037 38.3192 78.5902 36.956 77.2519C35.169 75.4963 54.6029 62.7338 53.4139 44.8444H53.4122Z" fill="#FFC33E" fill-opacity="0.6"/>
<path d="M53.4122 44.8444C52.881 36.8694 48.4803 31.3235 50.3253 30.1372C52.3287 28.8484 60.1522 33.7066 62.6463 40.7234C65.3919 48.4492 60.6764 55.9769 57.9079 60.3967C50.5733 72.1037 38.3192 78.5902 36.956 77.2519C35.169 75.4963 54.6029 62.7338 53.4139 44.8444H53.4122Z" fill="#F2FF00" fill-opacity="0.7"/>
<path d="M53.5288 14.1322C53.6836 13.966 56.6403 9.27579 54.3397 4.70929C52.5667 1.19293 48.6374 -0.320402 48.3208 0.0561618C48.1449 0.264775 49.1598 0.970169 50.1729 2.731C50.3576 3.05276 53.0434 7.88091 51.4463 12.7356C50.8694 14.4876 49.9565 15.5713 50.289 15.8771C50.6654 16.2237 52.3856 15.3645 53.5288 14.1322Z" fill="#FFC33E" fill-opacity="0.6"/>
<path d="M53.5288 14.1322C53.6836 13.966 56.6403 9.27579 54.3397 4.70929C52.5667 1.19293 48.6374 -0.320402 48.3208 0.0561618C48.1449 0.264775 49.1598 0.970169 50.1729 2.731C50.3576 3.05276 53.0434 7.88091 51.4463 12.7356C50.8694 14.4876 49.9565 15.5713 50.289 15.8771C50.6654 16.2237 52.3856 15.3645 53.5288 14.1322Z" fill="#F2FF00" fill-opacity="0.7"/>
<path d="M87.1807 59.6878C82.5214 59.9477 78.8911 55.1849 78.2561 54.3505C72.042 46.1934 73.6056 31.3412 82.2717 23.3803C91.2895 15.0959 105.684 16.482 106.286 18.5062C106.74 20.0319 100.093 21.2164 94.3394 27.7347C85.3286 37.9426 84.8537 54.08 87.8086 55.2309C90.8339 56.4101 97.9381 42.0583 98.9653 42.6487C99.996 43.2427 95.4756 59.2264 87.1807 59.6896V59.6878Z" fill="#FFC33E" fill-opacity="0.6"/>
<path d="M87.1807 59.6878C82.5214 59.9477 78.8911 55.1849 78.2561 54.3505C72.042 46.1934 73.6056 31.3412 82.2717 23.3803C91.2895 15.0959 105.684 16.482 106.286 18.5062C106.74 20.0319 100.093 21.2164 94.3394 27.7347C85.3286 37.9426 84.8537 54.08 87.8086 55.2309C90.8339 56.4101 97.9381 42.0583 98.9653 42.6487C99.996 43.2427 95.4756 59.2264 87.1807 59.6896V59.6878Z" fill="#F2FF00" fill-opacity="0.7"/>
<defs>
<filter id="filter0_d_0_1" x="0" y="67.2137" width="32.082" height="21.7455" filterUnits="userSpaceOnUse" color-interpolation-filters="sRGB">
<feFlood flood-opacity="0" result="BackgroundImageFix"/>
<feColorMatrix in="SourceAlpha" type="matrix" values="0 0 0 0 0 0 0 0 0 0 0 0 0 0 0 0 0 0 127 0" result="hardAlpha"/>
<feOffset dy="4"/>
<feGaussianBlur stdDeviation="2"/>
<feComposite in2="hardAlpha" operator="out"/>
<feColorMatrix type="matrix" values="0 0 0 0 0 0 0 0 0 0 0 0 0 0 0 0 0 0 0.25 0"/>
<feBlend mode="normal" in2="BackgroundImageFix" result="effect1_dropShadow_0_1"/>
<feBlend mode="normal" in="SourceGraphic" in2="effect1_dropShadow_0_1" result="shape"/>
</filter>
<filter id="filter1_d_0_1" x="51.4844" y="80.797" width="28.6836" height="17.9229" filterUnits="userSpaceOnUse" color-interpolation-filters="sRGB">
<feFlood flood-opacity="0" result="BackgroundImageFix"/>
<feColorMatrix in="SourceAlpha" type="matrix" values="0 0 0 0 0 0 0 0 0 0 0 0 0 0 0 0 0 0 127 0" result="hardAlpha"/>
<feOffset dy="4"/>
<feGaussianBlur stdDeviation="2"/>
<feComposite in2="hardAlpha" operator="out"/>
<feColorMatrix type="matrix" values="0 0 0 0 0 0 0 0 0 0 0 0 0 0 0 0 0 0 0.25 0"/>
<feBlend mode="normal" in2="BackgroundImageFix" result="effect1_dropShadow_0_1"/>
<feBlend mode="normal" in="SourceGraphic" in2="effect1_dropShadow_0_1" result="shape"/>
</filter>
</defs>
</svg>
