<svg width="136" height="147" viewBox="0 0 136 147" fill="none" xmlns="http://www.w3.org/2000/svg">
<path d="M39.6571 145.257C58.7638 149.338 80.0587 137.07 86.6439 122.518C89.4019 116.426 88.4978 112.321 93.6056 103.278C99.4469 92.9326 103.255 93.6503 106.658 85.7867C111.982 73.4803 104.673 67.0575 110.139 58.6741C115.699 50.1475 124.504 54.8837 131.022 46.4296C139.745 35.115 132.412 15.6875 127.542 7.07248C125.593 3.62683 122.72 -0.421676 121.451 0.0751056C118.482 1.23662 129.202 25.3296 121.451 31.5597C116.135 35.8328 102.317 31.5597 102.307 31.5597C103.696 17.9946 103.253 17.3758 102.307 16.6916C98.979 14.2855 89.4669 27.0233 85.5517 24.7568C80.72 21.9582 88.8214 1.38689 85.775 0.0751056C82.0955 -1.50894 71.7462 22.5045 61.4109 21.0654C56.4931 20.3795 55.3164 14.4499 51.8391 14.9432C46.5871 15.6875 47.1569 29.5231 40.5277 44.6794C33.9073 59.8162 20.7227 74.8593 13.5534 72.6671C6.3508 70.4643 7.82475 51.6626 5.72288 51.6767C3.05289 51.6944 -6.16894 82.0741 6.59353 111.149C10.799 120.729 19.6919 140.993 39.6588 145.257H39.6571Z" fill="#FFB614" fill-opacity="0.92"/>
</svg>
